<svg width="114" height="145" viewBox="0 0 114 145" fill="none" xmlns="http://www.w3.org/2000/svg">
<path d="M41.5975 92.4184C35.6438 91.8095 27.7958 89.5768 22.5863 87.4119C16.9709 85.1116 11.9645 81.9994 8.37872 78.955C6.14609 76.9929 5.06361 75.2339 4.99595 75.5722C4.18409 77.8048 3.16926 84.1644 2.69567 87.8855C2.01912 92.6213 1.95147 96.2071 2.08678 97.8984C2.15443 98.5073 2.56036 98.9809 3.16926 99.0486C4.45471 99.1839 8.37872 99.1839 10.8143 99.1162C11.0849 99.1162 11.2202 98.9809 11.2879 98.7103C11.7615 95.9365 11.7615 92.2154 11.7615 89.2386C11.7615 88.3591 11.6938 88.0884 11.6938 87.4795C11.7615 86.803 12.438 89.3739 12.5734 90.0504C12.7087 91.1329 13.4529 94.448 13.4529 98.778C13.4529 98.9133 13.4529 98.9809 13.4529 99.1162C13.4529 99.5222 13.9941 99.4545 14.3324 99.5222C14.6707 99.5222 17.1063 99.5898 17.4445 99.3192C17.9181 98.9809 17.1739 93.5685 16.8356 91.1329C16.8356 90.9976 16.9033 90.9299 17.0386 90.9976C21.5715 93.5685 26.0368 98.2367 27.1193 99.3192C29.6902 102.025 32.3287 107.303 33.2082 110.956C33.8171 113.459 34.426 116.842 34.6967 118.601C34.7643 119.007 35.2379 119.142 35.4409 118.804C36.8616 116.233 39.5678 110.347 40.718 106.017C41.8681 101.687 41.9358 94.3127 42.0711 92.9596C42.0034 92.6213 41.8005 92.4184 41.5975 92.4184Z" fill="#142528"/>
<path d="M20.4907 62.3158C23.2646 59.8802 27.8651 57.7829 31.1802 56.8357C31.3155 56.8357 31.3832 56.9034 31.3155 56.971C30.9096 57.7829 30.436 58.7977 30.1654 59.4066C30.0301 59.6096 30.2331 59.8802 30.5037 59.8125L36.0514 58.4594C36.6603 58.3241 37.2016 57.7829 37.3369 57.1063L37.6751 55.4826C37.7428 55.2796 37.8781 55.212 38.0134 55.1443C44.6436 53.8589 53.6418 52.5734 55.1979 52.3028C55.4008 52.3028 55.5362 52.3704 55.6038 52.5734C55.8744 53.3853 56.2804 54.3325 56.9569 54.2648C57.4982 54.1971 58.0394 53.9942 58.5807 53.7912C61.8958 52.6411 63.5195 51.9645 63.8578 51.8292C63.9254 51.8292 64.3313 51.6939 64.1284 51.8969C62.8429 53.3176 59.9338 54.6707 58.1747 55.8209C57.9717 55.9562 57.9041 56.4974 58.0394 56.7004C58.31 57.2416 58.4453 57.4446 58.6483 57.8505C59.0542 58.5271 59.9338 58.73 60.5427 58.2565C65.4138 54.7384 67.9171 53.1823 69.4732 51.8969C70.6233 50.9497 72.247 50.0702 72.5853 49.9349C72.9912 49.7319 74.1414 48.8524 72.9236 48.5817C71.5028 48.1758 69.6085 48.5141 66.0227 48.6494C53.0329 49.326 42.1404 51.4909 29.2859 51.6262C27.4592 51.6262 24.753 51.6939 22.9263 51.3556C22.791 51.3556 22.6557 51.1526 22.7233 51.0173C22.7233 50.9497 22.791 50.9497 22.791 50.882C22.791 50.8144 22.8586 50.7467 22.8586 50.6791C25.5648 48.0405 34.4953 44.5224 39.3665 42.1545C44.576 39.6512 58.9866 35.3213 64.399 34.3065C64.399 34.3065 65.1432 34.1712 65.2109 34.0359C65.2109 33.9005 65.0756 33.8329 64.9402 33.7652L57.7011 29.3V29.2323C57.6335 29.097 66.158 25.4436 81.8541 25.9849C83.4102 26.0525 88.0784 26.3908 89.6345 26.5938C91.3935 26.7967 91.8671 26.932 92.1377 26.932C91.4612 27.4733 91.0552 28.2851 91.1229 29.2323C91.1229 30.9237 92.5436 32.2091 94.235 32.2091C95.9264 32.2091 97.2795 30.7884 97.2795 29.1647C97.2795 28.6911 97.1442 28.2851 97.0089 27.8792C98.9709 28.1498 102.963 29.1647 105.669 30.3148C105.736 30.3825 105.804 30.3825 105.939 30.4501C106.007 30.4501 106.075 30.5178 106.142 30.5178C106.278 30.5854 106.278 30.7207 106.142 30.856C103.571 32.6151 100.662 35.2536 99.9181 38.3658C99.9181 38.4334 99.9181 38.4334 99.9181 38.5011C102.624 41.2073 106.345 42.3574 107.428 42.6957C107.563 42.6957 107.563 42.8987 107.428 42.9664C101.204 45.199 96.4 46.2138 89.8374 46.4168C86.8606 46.4844 83.4102 46.8227 80.6363 45.6049C77.2535 44.1165 74.5473 41.1397 73.6001 37.5539C72.653 33.9682 73.9384 30.2471 76.0357 27.338C76.1034 27.2027 75.9681 27.0673 75.9004 27.135C67.6465 31.7356 71.7734 42.9664 76.8476 48.1758C77.9977 49.3936 79.2155 50.5437 80.4333 51.6939C81.3128 52.5058 82.1924 53.3853 83.2749 53.8589C84.8986 54.5354 86.4547 50.6791 86.9282 49.4613C87.6724 49.3936 88.6873 49.2583 89.2285 49.1906C99.1739 48.3788 102.218 47.4993 107.157 46.0785C112.028 44.6577 114.329 43.1693 113.652 41.6132C113.043 40.2601 106.142 37.0803 104.519 36.3361C104.316 36.2685 104.248 35.9979 104.383 35.8625C104.925 35.1183 106.345 33.1563 108.916 31.5326C112.164 29.5029 113.381 29.0294 113.381 28.9617C113.381 27.6762 110.675 26.1202 108.849 25.3083C94.641 18.6104 78.9449 12.6568 56.9569 11.6419C54.386 11.5066 43.4259 11.3713 39.6372 12.1832C39.4342 12.1155 39.2989 12.1155 39.0959 12.0479C37.4722 10.5594 34.9689 8.32681 32.0597 6.36481C27.0532 3.04969 19.6112 0.478788 19.4759 0.411133C19.1376 0.411133 18.867 1.62893 18.5287 3.18501C18.461 3.38797 18.5963 3.59094 18.7993 3.65859C19.9494 4.06452 21.0319 4.53811 22.1821 5.0117C24.2794 5.89122 26.3767 6.90605 28.4064 7.92088C31.1126 9.34164 33.9541 10.8301 36.2544 12.7921C36.4574 12.9274 36.7956 13.401 36.5927 13.2656C35.4425 12.6568 34.9013 12.3861 34.1571 12.1155C33.0746 11.6419 31.9921 11.3036 30.842 10.8977C28.474 10.0182 26.1061 9.13868 23.6705 8.46213C21.7761 7.92088 19.8818 7.31198 17.9874 7.17667C17.8521 7.17667 17.7168 7.24433 17.7168 7.37964C17.3109 9.74757 16.905 13.6039 16.7696 14.957C16.7696 15.2277 16.5667 15.4983 16.2961 15.6336C15.2812 16.1748 12.7103 17.7986 11.0189 20.5724C8.78631 24.2258 9.32755 25.0377 9.53052 25.376C9.66583 25.5113 10.816 25.7142 11.7631 25.8495C6.28305 32.2768 2.56202 40.7337 1.0736 49.123C-0.347162 56.971 0.93829 67.5929 6.14775 74.1555C8.78631 77.4706 13.9958 83.1536 26.715 86.4011C28.271 86.807 36.1867 88.2278 43.1552 88.2278C43.3582 88.2278 43.4935 88.0925 43.6965 87.9572C45.1172 86.6717 49.0412 80.8534 48.5676 80.4474C48.3647 80.3121 47.3499 80.4474 46.4027 80.4474C43.1552 80.5151 36.7956 80.1768 35.1042 79.2296C34.6306 78.959 37.4045 79.162 41.5315 78.8913C43.4258 78.756 45.8614 78.4854 48.6353 77.8765C49.3119 77.7412 50.3267 77.2 50.3943 77.1323C51.9504 74.2908 52.2887 71.4492 52.424 71.111C52.5593 70.7727 52.2887 70.3668 51.9504 70.5021C42.9523 73.4789 35.2395 75.4409 25.6325 73.7495C23.8734 73.4112 21.1672 72.7347 19.8141 71.5846C17.2432 69.2843 16.9726 65.4279 20.4907 62.3158ZM38.0134 37.0127C37.5398 37.148 36.9986 36.945 36.7956 36.4038C36.6603 35.9302 36.9309 35.389 37.4045 35.186C37.8781 35.0507 38.4194 35.2536 38.6223 35.7949C38.8253 36.2685 38.5547 36.8097 38.0134 37.0127ZM44.3054 29.5029C44.1024 30.5178 43.1552 31.1267 42.208 30.9237C41.2609 30.7207 40.652 29.7736 40.8549 28.8264C41.0579 27.8115 42.0051 27.2027 42.9523 27.4056C43.8994 27.5409 44.5083 28.4881 44.3054 29.5029ZM53.2359 33.4946C52.627 33.6976 51.9504 33.3593 51.7475 32.7504C51.5445 32.1415 51.8828 31.5326 52.4917 31.3296C53.1006 31.1267 53.7771 31.4649 53.9801 32.0738C54.183 32.6827 53.8448 33.2916 53.2359 33.4946ZM94.3703 30.3148C93.7614 30.3148 93.2878 29.8412 93.2878 29.2323C93.2878 28.6234 93.7614 28.1498 94.3027 28.1498C94.8439 28.1498 95.3852 28.6234 95.3852 29.2323C95.4528 29.7736 94.9792 30.3148 94.3703 30.3148Z" fill="#142528"/>
<path d="M51.3412 119.007V98.1692H55.6711C57.1596 98.1692 58.3097 98.5751 59.1216 99.387C59.8658 100.199 60.2717 101.349 60.2717 102.702V108.047C60.2717 109.468 59.8658 110.55 59.1216 111.362C58.3774 112.174 57.2272 112.58 55.6711 112.58H53.5738V118.872H51.3412V119.007ZM55.7388 110.482C56.5507 110.482 57.0919 110.28 57.4978 109.874C57.9038 109.468 58.0391 108.859 58.0391 108.115V102.77C58.0391 102.026 57.8361 101.417 57.4302 101.011C57.0243 100.605 56.483 100.402 55.6711 100.402H53.5738V110.55H55.7388V110.482Z" fill="#142528"/>
<path d="M69.2034 119.479C67.5797 119.479 66.3619 119.073 65.5501 118.261C64.7382 117.45 64.3323 116.299 64.3323 114.946V102.295C64.3323 100.874 64.7382 99.7915 65.5501 98.9796C66.3619 98.1678 67.5797 97.7618 69.2034 97.7618C70.8272 97.7618 72.045 98.1678 72.8568 98.9796C73.6687 99.7915 74.0746 100.942 74.0746 102.295V114.946C74.0746 116.367 73.6687 117.45 72.8568 118.261C72.045 119.073 70.8272 119.479 69.2034 119.479ZM69.1358 99.9268C68.2563 99.9268 67.5797 100.13 67.1738 100.536C66.7678 100.942 66.5649 101.551 66.5649 102.295V114.946C66.5649 115.691 66.7678 116.232 67.2414 116.705C67.6474 117.111 68.3239 117.314 69.2711 117.314C70.1506 117.314 70.8272 117.111 71.2331 116.705C71.639 116.299 71.842 115.691 71.842 114.946V102.295C71.842 101.551 71.639 100.942 71.1655 100.536C70.6919 100.13 70.0153 99.9268 69.1358 99.9268Z" fill="#142528"/>
<path d="M79.2135 119.007V116.842H80.5666V100.402H79.2135V98.1692H84.22V100.402H82.7993V116.842H84.22V119.007H79.2135Z" fill="#142528"/>
<path d="M97.6876 119.007L91.8016 103.852V119.007H89.5689V98.1692H91.6662L97.5523 113.324V98.1692H99.7849V119.007H97.6876Z" fill="#142528"/>
<path d="M108.172 119.007V100.402H104.587V98.1692H113.991V100.402H110.405V119.007H108.172Z" fill="#142528"/>
<path d="M59.666 92.0811V71.2433H67.5817V73.4082H61.8987V80.3768H66.4316V82.6094H61.8987V92.0811H59.666Z" fill="#142528"/>
<path d="M72.1845 92.0811V89.9162H73.6053V73.4082H72.1845V71.2433H77.2587V73.4082H75.8379V89.9162H77.2587V92.0811H72.1845Z" fill="#142528"/>
<path d="M87.2034 92.5614C85.512 92.5614 84.2942 92.1554 83.55 91.3436C82.8058 90.5317 82.3999 89.3816 82.3999 88.0285V85.1869H84.6325V88.1638C84.6325 88.8403 84.8355 89.3816 85.2414 89.7875C85.6473 90.1934 86.3239 90.3964 87.2034 90.3964C88.0829 90.3964 88.7595 90.1934 89.1654 89.7875C89.5713 89.3816 89.7743 88.8403 89.7743 88.1638C89.7743 87.5549 89.7067 87.0136 89.5713 86.54C89.436 86.1341 89.1654 85.6605 88.7595 85.1869L83.8883 79.7745C83.2794 79.098 82.8735 78.4214 82.6705 77.7448C82.4675 77.0683 82.3322 76.3241 82.3322 75.3769C82.3322 73.9561 82.7381 72.8736 83.4824 72.0618C84.2942 71.2499 85.512 70.844 87.0681 70.844C88.6918 70.844 89.842 71.2499 90.5862 72.0618C91.3304 72.8736 91.6687 74.0238 91.6687 75.3769V78.2184H89.436V75.2416C89.436 74.565 89.2331 74.0238 88.8271 73.6179C88.4212 73.2119 87.8123 73.009 86.9328 73.009C86.1209 73.009 85.4444 73.2119 85.0384 73.6179C84.6325 74.0238 84.4295 74.565 84.4295 75.2416C84.4295 75.8505 84.4972 76.3917 84.6325 76.8653C84.7678 77.2712 85.0384 77.7448 85.4444 78.2184L90.4509 83.6309C90.9921 84.3074 91.398 84.984 91.601 85.6605C91.804 86.3371 91.8716 87.0813 91.8716 88.0285C91.8716 89.4492 91.4657 90.5317 90.7215 91.3436C90.1126 92.1554 88.8948 92.5614 87.2034 92.5614Z" fill="#142528"/>
<path d="M104.456 92.0811V82.6094H99.3141V92.0811H97.0139V71.2433H99.3141V80.3768H104.456V71.2433H106.689V92.0811H104.456Z" fill="#142528"/>
<path d="M18.2504 135.579V137.541C18.0474 137.541 17.9121 137.473 17.7768 137.473C16.9649 137.473 16.356 137.676 15.8824 138.15C15.4089 138.624 15.2059 139.3 15.2059 140.18V144.442H13.1762V135.647H15.1382V136.932C15.7471 135.985 16.762 135.579 18.2504 135.579Z" fill="#142528"/>
<path d="M29.6822 140.723H22.7814C22.9167 141.399 23.1873 141.873 23.7286 142.279C24.2698 142.685 24.8787 142.82 25.6229 142.82C26.5701 142.82 27.3819 142.482 27.9908 141.873L29.0733 143.158C28.6674 143.632 28.1938 143.97 27.5849 144.241C26.976 144.511 26.2995 144.579 25.5552 144.579C24.6081 144.579 23.7285 144.376 22.9843 143.97C22.2401 143.564 21.6989 143.023 21.293 142.346C20.887 141.67 20.6841 140.858 20.6841 140.046C20.6841 139.167 20.887 138.422 21.293 137.746C21.6989 137.069 22.2401 136.528 22.9167 136.122C23.5932 135.716 24.4051 135.513 25.2846 135.513C26.1641 135.513 26.9083 135.716 27.5849 136.054C28.2615 136.46 28.8027 136.934 29.141 137.678C29.5469 138.355 29.6822 139.167 29.6822 140.046C29.6822 140.249 29.6822 140.452 29.6822 140.723ZM23.5932 137.814C23.1196 138.219 22.849 138.693 22.7814 139.37H27.7879C27.7202 138.761 27.4496 138.219 26.976 137.814C26.5024 137.408 25.9612 137.205 25.2846 137.205C24.5404 137.205 23.9992 137.408 23.5932 137.814Z" fill="#142528"/>
<path d="M33.8118 144.307C33.1353 144.104 32.594 143.901 32.1881 143.63L33 142.074C33.4059 142.345 33.8795 142.548 34.4207 142.683C34.962 142.818 35.5032 142.954 36.0444 142.954C37.2622 142.954 37.8711 142.615 37.8711 142.006C37.8711 141.668 37.7358 141.465 37.3976 141.33C37.0593 141.194 36.5857 141.127 35.9091 140.992C35.1649 140.856 34.6237 140.789 34.1501 140.586C33.6765 140.45 33.2706 140.18 32.9323 139.841C32.594 139.503 32.4587 138.962 32.4587 138.353C32.4587 137.541 32.797 136.865 33.4735 136.323C34.1501 135.85 35.0973 135.579 36.3151 135.579C36.924 135.579 37.5329 135.647 38.1418 135.782C38.7507 135.917 39.2243 136.12 39.6302 136.323L38.8183 137.879C38.0741 137.473 37.2622 137.203 36.3151 137.203C35.7062 137.203 35.2326 137.27 34.962 137.473C34.6237 137.676 34.4884 137.879 34.4884 138.218C34.4884 138.556 34.6237 138.759 34.962 138.894C35.3002 139.03 35.8415 139.165 36.518 139.3C37.1946 139.435 37.8035 139.571 38.2771 139.706C38.7507 139.841 39.0889 140.112 39.4272 140.45C39.7655 140.789 39.9008 141.262 39.9008 141.871C39.9008 142.683 39.5625 143.359 38.8183 143.833C38.0741 144.307 37.1269 144.577 35.9091 144.577C35.1649 144.577 34.4884 144.442 33.8118 144.307Z" fill="#142528"/>
<path d="M48.6298 143.972C48.3592 144.175 48.0886 144.311 47.7503 144.446C47.412 144.581 47.0061 144.581 46.6678 144.581C45.7206 144.581 44.9764 144.311 44.4352 143.837C43.8939 143.363 43.6233 142.619 43.6233 141.604V137.342H42.2025V135.718H43.6233V133.689H45.653V135.718H48.0209V137.342H45.653V141.537C45.653 141.943 45.7883 142.281 45.9912 142.484C46.1942 142.687 46.5325 142.822 46.8707 142.822C47.3443 142.822 47.6826 142.687 48.0209 142.484L48.6298 143.972Z" fill="#142528"/>
<path d="M58.0985 136.46C58.7751 137.069 59.1134 138.016 59.1134 139.302V144.444H57.1514V143.361C56.8807 143.767 56.5425 144.038 56.0689 144.241C55.5953 144.444 55.054 144.579 54.3775 144.579C53.7009 144.579 53.1597 144.444 52.6184 144.241C52.1449 144.038 51.7389 143.7 51.4683 143.294C51.1977 142.888 51.0624 142.414 51.0624 141.941C51.0624 141.129 51.333 140.52 51.9419 140.046C52.5508 139.573 53.4303 139.302 54.7158 139.302H57.016V139.167C57.016 138.558 56.8131 138.084 56.4748 137.746C56.1365 137.408 55.5953 137.272 54.8511 137.272C54.3775 137.272 53.9039 137.34 53.3627 137.475C52.8891 137.611 52.4831 137.814 52.1449 138.084L51.333 136.596C51.8066 136.257 52.3478 135.987 53.0244 135.784C53.7009 135.581 54.3775 135.513 55.054 135.513C56.4071 135.581 57.422 135.852 58.0985 136.46ZM56.2042 142.685C56.6101 142.482 56.8807 142.143 57.0837 141.67V140.655H54.9864C53.7686 140.655 53.2274 141.061 53.2274 141.805C53.2274 142.211 53.3627 142.482 53.7009 142.685C53.9716 142.888 54.3775 143.023 54.9187 143.023C55.3247 143.091 55.7983 142.955 56.2042 142.685Z" fill="#142528"/>
<path d="M71.5624 135.651V144.446H69.6004V143.296C69.2622 143.702 68.8562 143.972 68.3826 144.175C67.9091 144.378 67.3678 144.514 66.7589 144.514C65.6088 144.514 64.6616 144.175 63.985 143.567C63.3085 142.89 62.9702 141.943 62.9702 140.657V135.651H64.9999V140.387C64.9999 141.199 65.2028 141.74 65.5411 142.146C65.8794 142.552 66.4206 142.755 67.0972 142.755C67.8414 142.755 68.4503 142.552 68.8562 142.078C69.2622 141.605 69.5328 140.996 69.5328 140.116V135.651H71.5624Z" fill="#142528"/>
<path d="M80.697 135.579V137.541C80.494 137.541 80.3588 137.473 80.2234 137.473C79.4116 137.473 78.8027 137.676 78.3291 138.15C77.8555 138.624 77.6525 139.3 77.6525 140.18V144.442H75.6229V135.647H77.5849V136.932C78.1261 135.985 79.2086 135.579 80.697 135.579Z" fill="#142528"/>
<path d="M90.3044 136.46C90.981 137.069 91.3193 138.016 91.3193 139.302V144.444H89.3573V143.361C89.0867 143.767 88.7484 144.038 88.2748 144.241C87.8012 144.444 87.26 144.579 86.5834 144.579C85.9069 144.579 85.3656 144.444 84.8244 144.241C84.3508 144.038 83.9449 143.7 83.6742 143.294C83.4036 142.888 83.2683 142.414 83.2683 141.941C83.2683 141.129 83.5389 140.52 84.1478 140.046C84.7567 139.573 85.6362 139.302 86.9217 139.302H89.222V139.167C89.222 138.558 89.019 138.084 88.6807 137.746C88.3424 137.408 87.8012 137.272 87.057 137.272C86.5834 137.272 86.1098 137.34 85.5686 137.475C85.095 137.611 84.6891 137.814 84.3508 138.084L83.5389 136.596C84.0125 136.257 84.5537 135.987 85.2303 135.784C85.9069 135.581 86.5834 135.513 87.26 135.513C88.6131 135.581 89.5602 135.852 90.3044 136.46ZM88.4101 142.685C88.816 142.482 89.0867 142.143 89.2896 141.67V140.655H87.1923C85.9745 140.655 85.4333 141.061 85.4333 141.805C85.4333 142.211 85.5686 142.482 85.9069 142.685C86.1775 142.888 86.5834 143.023 87.1246 143.023C87.5306 143.091 88.0042 142.955 88.4101 142.685Z" fill="#142528"/>
<path d="M102.956 136.528C103.632 137.205 103.971 138.152 103.971 139.437V144.511H101.941V139.708C101.941 138.964 101.738 138.355 101.4 137.949C101.061 137.543 100.52 137.34 99.8437 137.34C99.0994 137.34 98.4905 137.543 98.017 138.016C97.611 138.49 97.3404 139.099 97.3404 139.979V144.444H95.3107V135.649H97.2727V136.799C97.611 136.393 98.017 136.054 98.5582 135.852C99.0994 135.649 99.6407 135.513 100.317 135.513C101.4 135.581 102.279 135.852 102.956 136.528Z" fill="#142528"/>
<path d="M113.104 143.972C112.834 144.175 112.563 144.311 112.225 144.446C111.887 144.514 111.481 144.581 111.142 144.581C110.195 144.581 109.451 144.311 108.91 143.837C108.369 143.363 108.098 142.619 108.098 141.604V137.342H106.677V135.718H108.098V133.689H110.128V135.718H112.496V137.342H110.128V141.537C110.128 141.943 110.263 142.281 110.466 142.484C110.669 142.687 111.007 142.822 111.345 142.822C111.819 142.822 112.157 142.687 112.496 142.484L113.104 143.972Z" fill="#142528"/>
</svg>
